<?xml version="1.0" standalone="no"?>
<!DOCTYPE svg PUBLIC "-//W3C//DTD SVG 20010904//EN"
 "http://www.w3.org/TR/2001/REC-SVG-20010904/DTD/svg10.dtd">
<svg version="1.0" xmlns="http://www.w3.org/2000/svg"
 width="688.000000pt" height="688.000000pt" viewBox="0 0 688.000000 688.000000"
 preserveAspectRatio="xMidYMid meet">
<metadata>
Created by potrace 1.16, written by Peter Selinger 2001-2019
</metadata>
<g transform="translate(0.000000,688.000000) scale(0.100000,-0.100000)"
fill="#000000" stroke="none">
<path d="M3350 5954 c-85 -22 -189 -77 -252 -134 -67 -59 -135 -164 -316 -485
-71 -126 -187 -329 -257 -450 -70 -121 -173 -301 -230 -400 -56 -99 -167 -291
-247 -426 -80 -135 -159 -271 -177 -303 -38 -70 -247 -432 -464 -806 -269
-463 -273 -471 -284 -610 -20 -263 153 -506 416 -584 46 -14 117 -16 463 -16
l408 0 2 177 3 178 116 -4 116 -3 -1 38 c-1 29 3 39 14 39 11 0 14 -10 12 -38
l-3 -38 86 3 85 3 3 392 2 392 -85 4 c-47 2 -143 3 -215 2 l-130 -1 5 -55 c5
-63 3 -642 -3 -679 -2 -14 -5 -33 -5 -43 -2 -17 -23 -18 -396 -15 l-394 3 -44
30 c-55 38 -98 119 -98 184 1 35 11 66 43 126 48 90 518 909 637 1110 79 134
482 834 632 1100 47 83 126 218 175 300 49 83 143 245 208 360 66 116 134 226
152 246 32 35 109 69 157 69 35 0 120 -45 148 -78 14 -17 54 -81 88 -144 35
-62 87 -151 115 -198 29 -47 133 -227 232 -400 358 -627 587 -1023 668 -1160
34 -58 158 -271 275 -475 117 -203 261 -453 320 -555 141 -242 140 -241 140
-301 0 -97 -64 -184 -154 -208 -29 -8 -181 -11 -508 -9 -382 2 -469 1 -473
-10 -3 -8 -5 -89 -5 -180 l0 -167 312 2 c172 2 412 4 533 6 l220 2 78 34 c187
80 301 219 342 416 40 196 8 289 -235 695 -32 52 -209 361 -395 685 -185 325
-379 660 -430 745 -95 158 -242 413 -598 1035 -110 193 -218 374 -241 403 -38
49 -126 116 -204 156 -54 28 -181 56 -246 55 -34 0 -86 -7 -116 -15z"/>
<path d="M3867 4023 c-4 -3 -7 -437 -7 -964 l0 -958 33 -6 c17 -3 70 -5 116
-3 l84 3 -2 103 c-2 88 0 102 14 102 14 0 16 -13 13 -100 -4 -117 -8 -113 107
-108 66 3 70 4 74 28 2 14 5 426 7 915 3 797 5 895 20 933 10 28 13 47 7 53
-5 5 -57 8 -114 7 -101 -3 -104 -4 -102 -25 4 -32 -25 -30 -33 2 -6 25 -8 25
-108 25 -57 0 -106 -3 -109 -7z"/>
<path d="M3140 2716 l0 -625 212 1 c117 0 217 2 223 4 6 3 10 34 9 74 0 38 4
75 9 82 6 9 7 8 3 -4 -3 -10 -1 -18 4 -18 6 0 10 203 10 553 l0 552 -235 2
-235 3 0 -624z"/>
<path d="M2867 2872 c10 -6 13 -97 13 -380 1 -230 4 -372 10 -372 6 0 10 144
10 380 l0 380 -22 0 c-15 0 -19 -3 -11 -8z"/>
<path d="M2897 2060 c2 -19 3 -99 4 -177 l0 -143 115 0 114 0 0 174 0 175
-118 3 -119 3 4 -35z"/>
<path d="M3620 1915 l0 -175 115 0 115 0 0 175 0 175 -115 0 -115 0 0 -175z"/>
<path d="M3970 1525 c-99 -31 -172 -129 -173 -233 -1 -107 40 -186 125 -239
44 -28 62 -33 111 -33 99 0 140 16 197 75 27 30 50 63 50 74 0 43 -92 39 -164
-7 -102 -65 -208 14 -191 144 7 59 40 98 95 114 30 8 43 5 105 -25 100 -50
176 -45 155 10 -15 39 -96 103 -151 119 -63 19 -99 19 -159 1z"/>
<path d="M1364 1517 c-2 -7 -3 -120 -2 -252 l3 -240 34 -3 c19 -2 44 -1 57 2
24 6 24 8 24 141 0 75 4 135 9 135 5 0 26 -51 47 -112 53 -163 56 -168 104
-168 49 0 59 14 99 131 30 89 57 149 68 149 3 0 3 -58 0 -128 -5 -94 -4 -131
5 -140 16 -16 93 -15 106 1 6 7 10 100 9 252 l-2 240 -67 3 c-61 3 -68 1 -81
-20 -22 -34 -107 -264 -107 -288 0 -11 -6 -20 -13 -20 -15 0 -42 52 -91 170
-19 47 -41 102 -50 123 l-15 37 -66 0 c-44 0 -67 -4 -71 -13z"/>
<path d="M2128 1421 c-100 -33 -157 -143 -128 -252 26 -97 97 -149 205 -149
71 0 122 25 169 83 29 36 31 44 31 121 0 75 -3 86 -27 119 -48 62 -84 81 -158
84 -36 1 -77 -2 -92 -6z m133 -120 c46 -46 35 -131 -20 -164 -39 -23 -45 -22
-86 14 -30 27 -35 37 -35 77 0 36 6 52 27 74 36 37 75 37 114 -1z"/>
<path d="M2484 1417 c-2 -7 -3 -98 -2 -202 l3 -190 55 0 55 0 5 131 c6 150 16
174 77 174 58 0 73 -26 73 -129 0 -48 3 -109 6 -135 l7 -47 51 3 51 3 3 145
c3 164 -6 197 -67 237 -41 28 -115 31 -149 7 -21 -14 -26 -14 -63 0 -48 19
-98 21 -105 3z"/>
<path d="M2972 1418 c-9 -9 -12 -76 -12 -240 l0 -228 -35 -14 c-28 -12 -35
-20 -35 -44 0 -48 21 -66 68 -58 57 9 89 25 109 55 15 22 18 58 21 229 2 111
1 227 -3 257 l-6 55 -48 0 c-26 0 -52 -5 -59 -12z"/>
<path d="M3255 1413 c-68 -36 -99 -94 -99 -183 0 -80 27 -147 74 -180 44 -31
116 -38 164 -15 34 16 38 16 72 0 24 -11 47 -15 70 -10 l34 6 0 199 0 200 -41
0 c-23 0 -56 -7 -74 -16 -30 -14 -36 -14 -64 0 -38 20 -97 20 -136 -1z m166
-112 c24 -24 29 -38 29 -76 0 -37 -5 -51 -26 -70 -41 -38 -61 -40 -104 -11
-66 44 -66 132 0 168 48 25 67 23 101 -11z"/>
<path d="M4455 1414 c-124 -68 -154 -226 -62 -331 41 -46 82 -63 154 -63 102
1 183 57 200 138 23 111 -1 184 -78 238 -35 24 -54 29 -113 32 -51 2 -79 -2
-101 -14z m136 -97 c57 -44 51 -144 -12 -181 -25 -15 -33 -15 -56 -4 -36 17
-67 78 -58 117 14 64 83 101 126 68z"/>
<path d="M4835 1418 c-3 -7 -4 -99 -3 -203 l3 -190 58 -3 57 -3 0 116 c0 64 4
125 10 135 5 10 24 21 42 25 69 14 68 12 68 71 0 61 -10 67 -77 39 -32 -14
-37 -14 -47 1 -16 22 -104 32 -111 12z"/>
<path d="M5144 1418 c-5 -7 -7 -141 -4 -298 l5 -285 53 -3 c28 -2 52 -2 53 0
0 2 3 52 5 112 3 61 6 112 8 114 2 1 19 -6 37 -17 46 -28 113 -27 163 2 59 33
91 101 91 193 0 66 -3 76 -31 110 -65 80 -117 98 -207 69 -51 -16 -57 -16 -78
-1 -28 19 -83 21 -95 4z m257 -117 c24 -24 29 -38 29 -76 0 -37 -5 -51 -26
-70 -36 -34 -58 -39 -93 -20 -67 34 -77 121 -20 169 40 34 74 33 110 -3z"/>
</g>
</svg>
